HIERARCHY
ROOT Hips
{
    OFFSET 0.000000 0.000000 0.000000
    CHANNELS 6 Xposition Yposition Zposition Zrotation Xrotation Yrotation
    JOINT Spine
    {
        OFFSET -0.000000 14.517291 0.000000
        CHANNELS 3 Zrotation Xrotation Yrotation
        JOINT Spine1
        {
            OFFSET -0.000000 37.558300 0.000000
            CHANNELS 3 Zrotation Xrotation Yrotation
            JOINT Neck
            {
                OFFSET -0.000000 37.404057 3.400369
                CHANNELS 3 Zrotation Xrotation Yrotation
                JOINT Head
                {
                    OFFSET -0.000000 24.785618 -3.540803
                    CHANNELS 3 Zrotation Xrotation Yrotation
                    End Site
                    {
                        OFFSET -0.000000 35.408028 0.000000
                    }
                }
            }
            JOINT LeftShoulder
            {
                OFFSET 6.992933 33.973492 -0.192664
                CHANNELS 3 Zrotation Xrotation Yrotation
                JOINT LeftArm
                {
                    OFFSET 21.527611 0.000000 0.000000
                    CHANNELS 3 Zrotation Xrotation Yrotation
                    JOINT LeftForeArm
                    {
                        OFFSET 56.353916 0.000000 0.000000
                        CHANNELS 3 Zrotation Xrotation Yrotation
                        JOINT LeftHand
                        {
                            OFFSET 47.774071 0.000000 0.000000
                            CHANNELS 3 Zrotation Xrotation Yrotation
                            End Site
                            {
                                OFFSET 26.556021 0.000000 0.000000
                            }
                        }
                    }
                }
            }
            JOINT RightShoulder
            {
                OFFSET -7.065357 33.973492 -0.192664
                CHANNELS 3 Zrotation Xrotation Yrotation
                JOINT RightArm
                {
                    OFFSET -21.527611 0.000000 0.000000
                    CHANNELS 3 Zrotation Xrotation Yrotation
                    JOINT RightForeArm
                    {
                        OFFSET -56.353916 0.000000 0.000000
                        CHANNELS 3 Zrotation Xrotation Yrotation
                        JOINT RightHand
                        {
                            OFFSET -47.774071 0.000000 0.000000
                            CHANNELS 3 Zrotation Xrotation Yrotation
                            End Site
                            {
                                OFFSET -26.556021 0.000000 0.000000
                            }
                        }
                    }
                }
            }
        }
    }
    JOINT LeftUpLeg
    {
        OFFSET 17.704014 0.000000 0.000000
        CHANNELS 3 Zrotation Xrotation Yrotation
        JOINT LeftLeg
        {
            OFFSET -0.000000 -81.181816 0.000000
            CHANNELS 3 Zrotation Xrotation Yrotation
            JOINT LeftFoot
            {
                OFFSET -0.000000 -62.821102 0.000000
                CHANNELS 3 Zrotation Xrotation Yrotation
                JOINT LeftToeBase
                {
                    OFFSET -0.000000 -11.507608 26.556021
                    CHANNELS 3 Zrotation Xrotation Yrotation
                    End Site
                    {
                        OFFSET -0.000000 0.000000 7.081605
                    }
                }
            }
        }
    }
    JOINT RightUpLeg
    {
        OFFSET -17.704014 0.000000 0.000000
        CHANNELS 3 Zrotation Xrotation Yrotation
        JOINT RightLeg
        {
            OFFSET -0.000000 -81.181816 0.000000
            CHANNELS 3 Zrotation Xrotation Yrotation
            JOINT RightFoot
            {
                OFFSET -0.000000 -62.821102 0.000000
                CHANNELS 3 Zrotation Xrotation Yrotation
                JOINT RightToeBase
                {
                    OFFSET -0.000000 -11.507608 26.556021
                    CHANNELS 3 Zrotation Xrotation Yrotation
                    End Site
                    {
                        OFFSET -0.000000 0.000000 7.081605
                    }
                }
            }
        }
    }
}
MOTION
Frames:    11
Frame Time:    0.008333
34.828056    159.950516    -100.426277    -1.966474    -1.267572    25.724588    -1.716997    -4.155161    -1.997322    -5.591960    3.479265    -0.473223    8.258141    -1.769087    -1.968996    8.649864    0.573847    -2.215924    8.613924    3.182265    -15.934293    -32.705864    8.557981    -55.477840    -1.555417    -39.117493    -109.771774    -10.144724    -39.655109    -16.974052    -7.734917    5.443218    -5.687706    16.236019    22.220402    24.241533    19.421347    15.705105    1.172475    9.465130    17.109831    19.909182    9.816077    2.692306    -0.383820    -9.576352    21.372414    -17.292393    5.920994    -22.309048    44.623478    0.000000    0.000000    0.000000    -13.838666    -25.615839    -9.177708    11.712935    27.082026    -13.808092    3.575747    12.399366    -11.587437    0.000000    0.000000    0.000000    
34.885555    159.962799    -100.392189    -1.990566    -1.252254    25.735973    -1.687434    -4.153829    -2.015781    -5.672141    3.438622    -0.479218    8.371431    -1.725500    -1.961135    8.613737    0.535234    -2.225394    8.693812    3.238952    -15.962573    -32.759441    8.530502    -55.466125    -1.320322    -39.027672    -109.608795    -10.066581    -39.292652    -17.256273    -7.889127    5.274991    -5.773121    15.841599    22.241423    23.519096    19.433191    15.711298    1.027193    9.511399    17.142273    19.845974    9.820008    2.687901    -0.389343    -9.580676    21.366179    -17.274698    5.903514    -22.313486    44.606789    0.000000    0.000000    0.000000    -13.841911    -25.619648    -9.160288    11.727297    27.080885    -13.852503    3.589424    12.405181    -11.585694    0.000000    0.000000    0.000000    
34.947163    159.975845    -100.360741    -2.009106    -1.238317    25.754061    -1.653028    -4.149642    -2.040651    -5.769762    3.409509    -0.486426    8.526752    -1.705151    -1.942363    8.533521    0.507749    -2.239054    8.783857    3.291751    -15.986561    -32.796986    8.493829    -55.475677    -1.306840    -39.002941    -109.611816    -10.094189    -39.246685    -17.307301    -8.035222    5.086413    -5.868094    15.491939    22.178743    22.812984    19.464632    15.711377    0.816021    9.519795    17.177605    19.840214    9.811809    2.684671    -0.393022    -9.564759    21.359629    -17.277687    5.893686    -22.310905    44.599987    0.000000    0.000000    0.000000    -13.854153    -25.618782    -9.160422    11.729335    27.085327    -13.855593    3.601267    12.417403    -11.599368    0.000000    0.000000    0.000000    
35.007061    159.978439    -100.326660    -1.991758    -1.244707    25.768728    -1.650631    -4.107062    -2.072438    -5.864690    3.387479    -0.495526    8.696926    -1.684260    -1.914936    8.439371    0.464380    -2.246848    8.887136    3.312610    -15.976131    -32.855793    8.469487    -55.498943    -1.282976    -38.961506    -109.600746    -10.090316    -39.179672    -17.303095    -8.167238    4.885656    -5.967463    15.138309    21.985203    22.137875    19.630222    15.737406    0.553683    9.392202    17.225666    19.858551    9.786999    2.723477    -0.407135    -9.562936    21.336025    -17.265244    5.888526    -22.303905    44.585403    0.000000    0.000000    0.000000    -13.883765    -25.594097    -9.167504    11.725851    27.113003    -13.843405    3.627707    12.385419    -11.620111    0.000000    0.000000    0.000000    
35.063278    160.000626    -100.299263    -2.042793    -1.217250    25.785170    -1.587152    -4.143723    -2.111508    -5.948070    3.377304    -0.507224    8.764990    -1.669538    -1.914060    8.435414    0.462041    -2.256401    8.938057    3.314607    -15.998871    -32.871464    8.470922    -55.448208    -1.262421    -38.969772    -109.606071    -10.106876    -39.162830    -17.310413    -8.346598    4.680307    -6.048617    14.813215    22.161156    21.459295    19.466879    15.722291    0.415136    9.505107    17.249201    19.810345    9.804405    2.697921    -0.381185    -9.544169    21.321896    -17.252481    5.859294    -22.296572    44.542202    0.000000    0.000000    0.000000    -13.867746    -25.617960    -9.167013    11.720143    27.104132    -13.861917    3.661317    12.424815    -11.641118    0.000000    0.000000    0.000000    
35.123951    160.013351    -100.270950    -2.053370    -1.198413    25.796663    -1.570110    -4.132117    -2.151525    -6.013006    3.329690    -0.521367    8.874911    -1.632116    -1.902316    8.373914    0.445958    -2.266711    8.984003    3.336454    -16.020283    -32.889503    8.456311    -55.405758    -1.265979    -38.956612    -109.621552    -10.081821    -39.157581    -17.301706    -8.543380    4.492514    -6.113039    14.538738    21.958593    20.788887    19.638826    15.808250    0.125298    9.302257    17.347044    19.802204    9.790620    2.708343    -0.376339    -9.542413    21.290697    -17.242966    5.854255    -22.277737    44.526779    0.000000    0.000000    0.000000    -13.887002    -25.625031    -9.152414    11.731557    27.114470    -13.886158    3.687157    12.428957    -11.660763    0.000000    0.000000    0.000000    
35.184349    160.019882    -100.238892    -2.059721    -1.182277    25.811552    -1.549880    -4.126858    -2.195867    -6.089168    3.293262    -0.536072    8.994196    -1.600373    -1.890823    8.300545    0.448538    -2.282246    9.033508    3.362075    -16.037474    -32.943783    8.386970    -55.359024    -1.340950    -38.847641    -109.664734    -10.040237    -39.139851    -17.269524    -8.716836    4.331880    -6.177217    14.290057    21.812437    20.143433    19.637836    15.876514    -0.143286    9.350922    17.466547    19.793127    9.770011    2.723487    -0.339941    -9.514271    21.257563    -17.230404    5.814062    -22.286411    44.470413    0.000000    0.000000    0.000000    -13.914680    -25.628716    -9.152315    11.748756    27.134399    -13.896871    3.701746    12.412481    -11.681406    0.000000    0.000000    0.000000    
35.244125    160.027390    -100.205971    -2.063673    -1.167975    25.825377    -1.521859    -4.117792    -2.237373    -6.195391    3.252508    -0.549402    9.144027    -1.575330    -1.877416    8.227300    0.460795    -2.301902    9.115306    3.381364    -16.067575    -32.990429    8.333101    -55.318073    -1.623336    -38.815216    -109.871658    -10.066431    -39.440281    -17.002789    -8.854358    4.190819    -6.239272    13.986747    21.789135    19.520216    19.634983    15.939017    -0.345893    9.331764    17.558691    19.792347    9.751322    2.745787    -0.325457    -9.495622    21.219259    -17.225897    5.786926    -22.277000    44.432453    0.000000    0.000000    0.000000    -13.941228    -25.626680    -9.143272    11.768378    27.144545    -13.920280    3.713027    12.406915    -11.696162    0.000000    0.000000    0.000000    
35.304779    160.037308    -100.172333    -2.063287    -1.152250    25.834238    -1.497000    -4.116293    -2.276821    -6.298214    3.230447    -0.561113    9.287121    -1.573444    -1.851605    8.153882    0.487657    -2.310423    9.201511    3.393443    -16.069263    -33.060173    8.286715    -55.300426    -1.666907    -38.734772    -109.890396    -10.045491    -39.414276    -16.964708    -9.043539    4.010105    -6.310449    13.747036    21.695305    18.922270    19.711933    16.064438    -0.592096    9.307296    17.718609    19.775911    9.724028    2.772530    -0.278715    -9.460379    21.179100    -17.228371    5.752746    -22.272352    44.380680    0.000000    0.000000    0.000000    -13.968876    -25.625969    -9.155818    11.768543    27.161802    -13.936924    3.730015    12.401372    -11.683312    0.000000    0.000000    0.000000    
35.364437    160.043381    -100.139130    -2.066301    -1.131773    25.840418    -1.432199    -4.173662    -2.324977    -6.482057    3.294522    -0.568821    9.430867    -1.591617    -1.816033    8.140143    0.514667    -2.302243    9.327001    3.377911    -16.052048    -33.088028    8.260466    -55.289757    -1.654341    -38.723061    -109.866394    -10.008752    -39.394882    -16.929487    -9.180912    3.793066    -6.358603    13.499242    21.741316    18.343449    19.685068    16.101875    -0.778196    9.389381    17.797817    19.748207    9.701466    2.790621    -0.244247    -9.444104    21.143028    -17.213861    5.733704    -22.263197    44.331051    0.000000    0.000000    0.000000    -13.999757    -25.634623    -9.170940    11.775945    27.185312    -13.940784    3.739974    12.392561    -11.684284    0.000000    0.000000    0.000000    
35.422714    160.053558    -100.104347    -2.068768    -1.119926    25.849470    -1.403033    -4.171861    -2.363766    -6.582929    3.279026    -0.580064    9.570222    -1.619484    -1.787692    8.071388    0.576447    -2.311808    9.400381    3.404126    -16.034756    -33.113594    8.238743    -55.290611    -1.414678    -38.645813    -109.660660    -9.936193    -39.037762    -17.194008    -9.343317    3.636857    -6.464358    13.242829    21.707300    17.821224    19.709341    16.159172    -0.967908    9.219838    17.858961    19.762157    9.680543    2.819571    -0.225861    -9.421523    21.092979    -17.215574    5.693613    -22.259708    44.308994    0.000000    0.000000    0.000000    -14.024206    -25.630239    -9.160309    11.790404    27.194494    -13.974774    3.761702    12.388145    -11.673433    0.000000    0.000000    0.000000    
